# xmcd
#
# Track frame offsets: 
#        150
#        25046
#        56165
#        80946
#        104714
#        130449
#        159937
#        185266
#        216230
#        245800
#
# Disc length: 3475 seconds
#
# Revision: 0
# Processed by: cddbd v1.5.2PL0 Copyright (c) Steve Scherf et al.
# Submitted via: ExactAudioCopy v0.95b4
#
DISCID=930d910a
DTITLE=Elektrum - In The Far Field
DYEAR=2006
DGENRE=Psychedelic Rock
TTITLE0=Crystal
TTITLE1=Silence
TTITLE2=Chakra
TTITLE3=Lost In The Jungle
TTITLE4=Dart Meet
TTITLE5=Skies Limit
TTITLE6=Platin
TTITLE7=New Land
TTITLE8=Solid Underground
TTITLE9=Nearly There
EXTD=
EXTT0=
EXTT1=
EXTT2=
EXTT3=
EXTT4=
EXTT5=
EXTT6=
EXTT7=
EXTT8=
EXTT9=
PLAYORDER=
